<svg xmlns="http://www.w3.org/2000/svg" xmlns:xlink="http://www.w3.org/1999/xlink" viewBox="0 0 417.26 432.24"><defs><style>.cls-1{isolation:isolate;}.cls-2{fill:url(#radial-gradient);}.cls-3{opacity:0.58;}.cls-10,.cls-12,.cls-13,.cls-14,.cls-19,.cls-20,.cls-21,.cls-22,.cls-4,.cls-5,.cls-6,.cls-7,.cls-8,.cls-9{mix-blend-mode:multiply;}.cls-10,.cls-12,.cls-13,.cls-14,.cls-16,.cls-17,.cls-18,.cls-19,.cls-20,.cls-21,.cls-22,.cls-4,.cls-5,.cls-6,.cls-7,.cls-8,.cls-9{opacity:0.5;}.cls-4{fill:url(#linear-gradient);}.cls-5{fill:url(#linear-gradient-2);}.cls-6{fill:url(#linear-gradient-3);}.cls-7{fill:url(#linear-gradient-4);}.cls-8{fill:url(#linear-gradient-5);}.cls-9{fill:url(#linear-gradient-6);}.cls-10{fill:url(#linear-gradient-7);}.cls-11,.cls-16,.cls-17,.cls-18{mix-blend-mode:screen;}.cls-11{opacity:0.38;fill:url(#linear-gradient-8);}.cls-12{fill:url(#linear-gradient-9);}.cls-13{fill:url(#linear-gradient-10);}.cls-14{fill:url(#linear-gradient-11);}.cls-15{fill:#89ff00;}.cls-16{fill:url(#linear-gradient-12);}.cls-17{fill:url(#linear-gradient-13);}.cls-18{fill:url(#linear-gradient-14);}.cls-19{fill:url(#linear-gradient-15);}.cls-20{fill:url(#linear-gradient-16);}.cls-21{fill:url(#linear-gradient-17);}.cls-22{fill:url(#linear-gradient-18);}.cls-23{fill:#7984c6;}</style><radialGradient id="radial-gradient" cx="208.63" cy="216.28" fx="169.19076059223897" fy="74.20962769288909" r="212.33" gradientUnits="userSpaceOnUse"><stop offset="0" stop-color="#566095"/><stop offset="1" stop-color="#29164c"/></radialGradient><linearGradient id="linear-gradient" x1="18.49" y1="161.56" x2="377.61" y2="161.56" gradientUnits="userSpaceOnUse"><stop offset="0" stop-color="#29364c"/><stop offset="1" stop-color="#fff"/></linearGradient><linearGradient id="linear-gradient-2" x1="89.19" y1="42.86" x2="263.32" y2="42.86" xlink:href="#linear-gradient"/><linearGradient id="linear-gradient-3" x1="44.84" y1="88.99" x2="338.74" y2="88.99" xlink:href="#linear-gradient"/><linearGradient id="linear-gradient-4" x1="107.27" y1="337.7" x2="392.17" y2="337.7" xlink:href="#linear-gradient"/><linearGradient id="linear-gradient-5" x1="273.07" y1="375.79" x2="344.01" y2="375.79" xlink:href="#linear-gradient"/><linearGradient id="linear-gradient-6" x1="287.46" y1="344.47" x2="289.63" y2="344.47" xlink:href="#linear-gradient"/><linearGradient id="linear-gradient-7" x1="1.29" y1="257.36" x2="402.17" y2="257.36" xlink:href="#linear-gradient"/><linearGradient id="linear-gradient-8" x1="-284.62" y1="231.2" x2="-42" y2="362.7" gradientTransform="matrix(0.83, 0.55, -0.55, 0.83, 476.1, -6.79)" gradientUnits="userSpaceOnUse"><stop offset="0" stop-color="#7984c6"/><stop offset="0.01" stop-color="#7580c0"/><stop offset="0.1" stop-color="#5a6293"/><stop offset="0.19" stop-color="#42486c"/><stop offset="0.28" stop-color="#2d314a"/><stop offset="0.39" stop-color="#1d1f2f"/><stop offset="0.5" stop-color="#10111a"/><stop offset="0.62" stop-color="#07080b"/><stop offset="0.77" stop-color="#020203"/><stop offset="1"/></linearGradient><linearGradient id="linear-gradient-9" x1="34.58" y1="69.84" x2="346.68" y2="69.84" gradientUnits="userSpaceOnUse"><stop offset="0" stop-color="#29364c"/><stop offset="0.1" stop-color="#303d52"/><stop offset="0.24" stop-color="#444f63"/><stop offset="0.42" stop-color="#656e7e"/><stop offset="0.62" stop-color="#9299a4"/><stop offset="0.83" stop-color="#cccfd4"/><stop offset="1" stop-color="#fff"/></linearGradient><linearGradient id="linear-gradient-10" x1="4.14" y1="244.63" x2="396.23" y2="244.63" gradientUnits="userSpaceOnUse"><stop offset="0" stop-color="#29364c"/><stop offset="0.14" stop-color="#2d3a4f"/><stop offset="0.28" stop-color="#384459"/><stop offset="0.42" stop-color="#4b5669"/><stop offset="0.55" stop-color="#66707f"/><stop offset="0.68" stop-color="#89909c"/><stop offset="0.81" stop-color="#b4b8c0"/><stop offset="0.94" stop-color="#e5e7e9"/><stop offset="1" stop-color="#fff"/></linearGradient><linearGradient id="linear-gradient-11" x1="146.85" y1="365.48" x2="379.4" y2="365.48" gradientUnits="userSpaceOnUse"><stop offset="0" stop-color="#29364c"/><stop offset="0.11" stop-color="#2f3b51"/><stop offset="0.25" stop-color="#3e4a5e"/><stop offset="0.4" stop-color="#586374"/><stop offset="0.57" stop-color="#7d8592"/><stop offset="0.74" stop-color="#acb1b9"/><stop offset="0.92" stop-color="#e4e5e8"/><stop offset="1" stop-color="#fff"/></linearGradient><linearGradient id="linear-gradient-12" x1="47.8" y1="75.1" x2="355.66" y2="75.1" gradientUnits="userSpaceOnUse"><stop offset="0" stop-color="#5d65a4"/><stop offset="0.14" stop-color="#5a629f"/><stop offset="0.3" stop-color="#535a92"/><stop offset="0.46" stop-color="#464c7c"/><stop offset="0.64" stop-color="#34395c"/><stop offset="0.81" stop-color="#1e2034"/><stop offset="0.99" stop-color="#020203"/><stop offset="1"/></linearGradient><linearGradient id="linear-gradient-13" x1="4.44" y1="249.67" x2="396.23" y2="249.67" gradientUnits="userSpaceOnUse"><stop offset="0" stop-color="#6d75ad"/><stop offset="0.18" stop-color="#6b73aa"/><stop offset="0.33" stop-color="#646c9f"/><stop offset="0.48" stop-color="#59608e"/><stop offset="0.61" stop-color="#4a4f75"/><stop offset="0.75" stop-color="#363a55"/><stop offset="0.87" stop-color="#1d202f"/><stop offset="1" stop-color="#010101"/><stop offset="1"/></linearGradient><linearGradient id="linear-gradient-14" x1="151.76" y1="365.48" x2="379.4" y2="365.48" gradientUnits="userSpaceOnUse"><stop offset="0" stop-color="#4b4e83"/><stop offset="0.27" stop-color="#4a4c80"/><stop offset="0.44" stop-color="#454778"/><stop offset="0.58" stop-color="#3c3f69"/><stop offset="0.71" stop-color="#313355"/><stop offset="0.82" stop-color="#21233a"/><stop offset="0.93" stop-color="#0f101a"/><stop offset="1"/></linearGradient><linearGradient id="linear-gradient-15" x1="334.44" y1="164.24" x2="334.44" y2="349.56" xlink:href="#linear-gradient"/><linearGradient id="linear-gradient-16" x1="33.54" y1="157.37" x2="33.54" y2="263.98" xlink:href="#linear-gradient"/><linearGradient id="linear-gradient-17" x1="110.06" y1="304.4" x2="110.06" y2="417.24" xlink:href="#linear-gradient"/><linearGradient id="linear-gradient-18" x1="285.86" y1="61.93" x2="285.86" y2="255.16" gradientUnits="userSpaceOnUse"><stop offset="0" stop-color="#29364c"/><stop offset="0.66" stop-color="#fff"/></linearGradient></defs><g class="cls-1"><g id="Слой_2" data-name="Слой 2"><g id="Layer_3" data-name="Layer 3"><path class="cls-2" d="M415.52,180.73c-2.11-8.27-4.57-13.39-7-16.49-6.19-7.86-12.28-2.7-12.28-2.7a180.11,180.11,0,0,0-5.42-27.24c-5.36-19.8-15.72-47.37-35.3-72.37C327.39,26,280.26-4.53,201.56,1,37,12.42,4.93,132.47.58,157.37A40.89,40.89,0,0,0,0,161.54c-.18,3.48,2,6,5,7.85-.59,2.63-1.08,5.3-1.57,8A200.41,200.41,0,0,0,16,292.82s0,0-4.87,11.58c-4.33,10.29,70.49,79.23,95.76,102.15,3.11,2.82,5.52,5,6.89,6.22C126.26,424,169.18,419,181,423.34s23.67-1.24,23.67-1.24,3.7,13.06,32.94,9.53S349,366.11,365.76,349.94s2.95-23.33,2.95-23.33c3.57-5.29,6.85-10.79,9.92-16.42.24-.45.51-.88.75-1.33C405.49,304.48,423,210,415.52,180.73Z"/><g class="cls-3"><path class="cls-4" d="M192.6,210.55c34.53,15.23,35.32-55.39,65.16-34.34,5.94,5.42,13.15,5.64,19.89,1.54,15.92-6.32,25.25,13.18,42.93,5.31,37,15.67,67.45-73.67,38.19-40.77-43.75,56.45-22-36.06,18.84-22.14-47-51.13-68.62,121.11-181,7.91-15.72,9.93-33.29,3.43-50.35,2.09-46.63,5.32,39,11.83,1.43,34.64-8,3.72-16.25-1.49-24.32.58-25.82,30.95-140.12-50.95-94,1.21C67.54,227.47,148.14,150.12,192.6,210.55Zm-33.9-44c14.12-11.85,37.14-36.91,47.06-5.49,5.24,2.25,14.23-4.41,17.41,3.32C233.43,200.7,139.88,192.57,158.7,166.55Z"/><path class="cls-5" d="M112.32,63.36c52.88,15.48,236-31.17,104.26-44.12C304.58,64,6.23,36.44,112.32,63.36Z"/><path class="cls-6" d="M98.44,117.28c73-43.24,165.46,33.44,212.88-17.13C313.45,83.09,266,112.65,271,87.94c12.5-31.26,99.49,7.3,55.32-26.2C282.48,45.06,262,110.85,221.55,92.38c-20.74-12.53-43.52,9.11-64.65,8.18C137.8,82,122,107.68,100.77,111.35c-19.52,5.91-43.89.68-54.58-17.88C36.39,114.33,82.37,122.91,98.44,117.28Z"/><path class="cls-7" d="M338.27,303.29c-20.82,1.17-32-38-52.69-23.5,1.49,45.14-46.69,85.34-94.24,102.06-26.3,7.37-96.4-31.5-82.19,17,72.53-26.38,111.78,31.35,160-61.14,9.2.26,15,2.26,18.36,5.42-3.77-5.06-5.91-10.24-3.4-15.11,15.51-7.16,1.75-31.65,17.46-34.73,49.88,35.06-9.47,32.44,72.74,6.88C422.8,278.84,359.59,296.45,338.27,303.29Z"/><path class="cls-8" d="M283.65,404.93c-4.06-37.72,44-30.92,60.36-40.77-13-20-25,5.93-39.47-2.24-3.36-4.64-9.91-10.24-14.91-16.1C301,365.34,252.58,412.52,283.65,404.93Z"/><path class="cls-9" d="M287.46,343.11c.68.91,1.4,1.81,2.17,2.71A12,12,0,0,0,287.46,343.11Z"/><path class="cls-10" d="M162.8,348c28.81,6.29,106-40.34,77.75-61-6.09,19-60.55,64.89-60.38,24.68,34.13-24,57.43-61.72,90.93-84.09,24.73,1.12,5.32,26.5,41.88,7.79,56.75,45.49,108.76-48.12,81.92-69.11,3.75,86.65-110.57,58.24-150.37,39.5-64.71,68.53-38.57-6.21-102.19,7.1-58.72,67.89-127.68,6.1-141,9.7,65.39,130.65,153.05-43,159.92,14.83-7.06,10.43,11.59.87,13,8,2.3,38.86,43.78-23.94,58.12-4.48,2.39,25.66-64.82,85.89-74,45.68-6.26-18.79-31.76-1-30.51,11.11,6.9.69,23.27-7.95,23.8,3.22-14.67,45.72-53.11.3-79.54,6.79-4.34,2.29-4.54,7.47,1,8.23,22.72,21.28-33.65,19.63-40.92,2.3-39.3-59.86-9.43-1.8,12.51,25.37,14.51,7.78,27.59.23,38.41-9.48C109.49,331.33,134.89,351.87,162.8,348Z"/></g><path class="cls-11" d="M12.11,222.15c39,47.69,126.44-110.18,246.5-25.73s142-58.73,68.3-127.18c-57.58-53.5-112-76.07-206-43.93S-13.86,190.39,12.11,222.15Z"/><path class="cls-12" d="M136.27,73.23c.54-15.65,92.4-44.21,81.2-18.7s-65,11.24-65,11.24-20.93,28.14,52.22,21,100.85-66.19-15-54.74S21.44,110,96.71,117s262.42,18.56,218.65-64.44C273.31-27.21,150.74,8.71,150.74,8.71s130.42-39.17,188.33,63.9C401.24,183.24,62.25,123,51.67,119.88s-29.73-13.35-5-29.85,44.73-55.9,89-58.48S266.08,7.21,272.51,44.62C280,88.12,134.41,127.35,136.27,73.23Z"/><path class="cls-13" d="M396.23,161.54s-32,85.13-158.93,106.91-51.88-126.17-163.23-98.8,32.67,37,14.63,81.77S4.05,246.22,4.5,171.8c0,0-9.27,86.46,66.06,103.38C154.37,294,66.77,337,16,292.84c0,0,33.86,54.92,79.89,26.93s6.75-42.5,3.64-50.58,14.25-43.67-28.68-72.28S140,158.46,150,238.08s125.29,31.3,130.26,36.28,5.84,22.07,38.32-15.75,51-14.31,58.48-33S396.23,161.54,396.23,161.54Z"/><path class="cls-14" d="M379.4,308.86s-133.08,80.27-232.55,31c0,0,38.34,50.18,130,22.67,83.3-25-72.19,59.6-72.19,59.6S349.9,373,314.81,352.54l49-29.55A36.25,36.25,0,0,0,379.4,308.86Z"/><path class="cls-15" d="M379.4,308.86S255,401,151.76,345c0,0,38.28,48.46,130,21.15s-77.11,56-77.11,56,151.76-45.41,115.05-65.94l49-29.55S376.09,318.87,379.4,308.86Z"/><path class="cls-16" d="M145.85,76.85c.54-15.66,84.3-47.28,73.1-21.78s-57.13,20.75-57.13,20.75-28.15,19.07,45,12S310,27.05,194.17,38.5,30.57,124,105.84,131,372.71,149.23,327.3,67.11,150.74,8.71,150.74,8.71s138-38,197.71,73.95-270.8,46.07-281.37,43-32.76-18-8-34.48,35.36-53.26,79.59-55.84S270.58,10.9,277.42,48.23C285.86,94.27,144,131,145.85,76.85Z"/><path class="cls-17" d="M396.23,161.54S367.94,260.36,241,282.13,196.55,147.45,85.2,174.82,122.05,210,102.42,254.1C78.05,308.86,4.05,246.22,4.5,171.8c0,0-5.15,88.56,78.84,106.6s-7,76.37-62.84,20.88c0,0,34.33,59,80.36,31s11.2-42.92,8.09-51S123.88,232.58,81,204s68.43-35.46,78.39,44.17S280,279.86,285,284.84s10.45,21.64,42.93-16.17,51-14.31,58.47-33S396.23,161.54,396.23,161.54Z"/><path class="cls-18" d="M379.4,308.86S255,401,151.76,345c0,0,42.74,54.9,134.48,27.59s-81.57,49.55-81.57,49.55,156.22-39,119.52-59.5l44.52-36S376.09,318.87,379.4,308.86Z"/><path class="cls-19" d="M252.23,334.7c-8.15,33.76,68,3.22,126.4-24.51.24-.45.51-.88.75-1.33C405.49,304.48,423,210,415.52,180.73c-2.11-8.27-4.57-13.39-7-16.49C412.69,297.5,258.76,307.66,252.23,334.7Z"/><path class="cls-20" d="M53.94,239.52c-44.79-31.73-16.7-57.11-30.79-59.25S.58,157.38.58,157.37A40.89,40.89,0,0,0,0,161.54c-.18,3.48,2,6,5,7.85-.59,2.63-1.08,5.3-1.57,8l.74.32C15.53,290.34,98.73,271.25,53.94,239.52Z"/><path class="cls-21" d="M195.29,394c-41.54-4.2-32.64-54.12-85.36-44.39S11.17,304.4,11.17,304.4c-4.33,10.29,70.49,79.23,95.76,102.15C188.37,435.11,233.67,397.83,195.29,394Z"/><path class="cls-22" d="M271.82,161.54c-126.43,1.93-95.59,89.64-63.19,93.38s196.64-36,182.18-120.62c-5.36-19.8-15.72-47.37-35.3-72.37C356,63,397.58,159.62,271.82,161.54Z"/><path class="cls-15" d="M141.19,76.85c.54-15.66,89-47.28,77.76-21.78s-61.59,14.31-61.59,14.31S135.48,94.8,208.63,87.69s96.89-67.08-18.92-55.63S26.1,117.57,101.38,124.58s266.87,18.21,221.46-63.91-172.1-52-172.1-52S284.27-35.75,344,76.23,67.16,126.6,56.59,123.5s-29.73-13.35-5-29.86,44.73-55.89,89-58.47S278.05,10.28,277.42,48.23,139.32,131,141.19,76.85Z"/><path class="cls-15" d="M396.23,161.54s-27.36,97-154.26,118.73-51.64-134.37-163-107S114.44,211.22,96.4,256,4.05,246.22,4.5,171.8c0,0-9.5,89.8,74.48,107.84S71.92,348.33,16,292.84c0,0,34.33,59,80.36,31s11.2-42.92,8.09-51,14.93-46.65-28-75.27,68.43-35.46,78.38,44.17,120.69,31.72,125.66,36.7S291,300,323.46,262.23s51-14.31,58.47-33S396.23,161.54,396.23,161.54Z"/><path class="cls-23" d="M225.48,120.86s109-3.11,94-58.93C319.47,61.93,355.66,122.88,225.48,120.86Z"/><path class="cls-23" d="M162.19,54.88s46.88-18.78,57.38-6C219.57,48.93,219.34,26.3,162.19,54.88Z"/><path class="cls-23" d="M43.76,179.06s57.73-23.12,80.5-5.94C124.26,173.12,109.86,145.9,43.76,179.06Z"/><path class="cls-23" d="M180,262.63S260.2,278,344.74,224C344.74,224,237.52,294.37,180,262.63Z"/></g></g></g></svg>