<svg width="791" height="85" viewBox="0 0 791 85" fill="none" xmlns="http://www.w3.org/2000/svg">
<path d="M28.7549 4.47168H41.5518L70.3447 64H57.6621L52.9014 53.9834H18.1289L13.5205 64H0.799805L28.7549 4.47168ZM48.1406 44.043L35.2676 17.002L22.7373 44.043H48.1406ZM287.777 4.47168H309.601C315.974 4.47168 321.509 5.15723 326.206 6.52832C330.903 7.89941 334.788 9.86719 337.86 12.4316C340.958 14.9707 343.256 18.0684 344.754 21.7246C346.277 25.3555 347.039 29.4434 347.039 33.9883C347.039 38.3047 346.29 42.3037 344.792 45.9854C343.294 49.6416 341.009 52.8154 337.937 55.5068C334.864 58.1729 330.979 60.2676 326.282 61.791C321.585 63.2891 316.05 64.0381 309.677 64.0381L287.777 64V4.47168ZM312.571 53.5645C316.177 53.5645 319.338 53.1074 322.055 52.1934C324.771 51.2539 327.031 49.9336 328.834 48.2324C330.662 46.5312 332.033 44.4746 332.947 42.0625C333.861 39.6504 334.318 36.959 334.318 33.9883C334.318 31.0684 333.861 28.4404 332.947 26.1045C332.033 23.7432 330.662 21.75 328.834 20.125C327.031 18.4746 324.771 17.2051 322.055 16.3164C319.338 15.4277 316.177 14.9834 312.571 14.9834H299.851V53.5645H312.571Z" fill="#00DC82"/>
<path d="M78.1904 19.0586H89.4639V25.5332C91.9521 23.6797 94.5801 22.0801 97.3477 20.7344C100.115 19.3887 102.87 18.3604 105.612 17.6494L108.926 27.9707C104.584 28.4023 100.763 29.3799 97.4619 30.9033C94.1865 32.4014 91.5205 34.5215 89.4639 37.2637V64H78.1904V19.0586ZM124.122 27.5137H113.268V19.0586H124.122V5.08105H135.396V19.0586H146.25V27.5137H135.396V64H124.122V27.5137ZM156.267 19.0205H167.502V40.958C167.502 43.04 167.73 44.9443 168.188 46.6709C168.645 48.3721 169.419 49.832 170.511 51.0508C171.628 52.2695 173.101 53.2217 174.929 53.9072C176.782 54.5674 179.08 54.8975 181.822 54.8975C183.117 54.8975 184.425 54.7578 185.745 54.4785C187.091 54.1992 188.373 53.8184 189.592 53.3359C190.811 52.8281 191.94 52.2314 192.981 51.5459C194.048 50.8604 194.962 50.1113 195.724 49.2988V19.0205H206.997V64H195.724V60.1533C192.956 61.8037 190.176 62.9844 187.383 63.6953C184.59 64.4062 181.937 64.7617 179.423 64.7617C175.31 64.7617 171.78 64.2666 168.835 63.2764C165.915 62.2861 163.516 60.8516 161.637 58.9727C159.783 57.0684 158.425 54.7451 157.562 52.0029C156.698 49.2354 156.267 46.0869 156.267 42.5576V19.0205ZM221.317 19.0586H232.591V25.5332C235.079 23.6797 237.707 22.0801 240.475 20.7344C243.242 19.3887 245.997 18.3604 248.739 17.6494L252.053 27.9707C247.711 28.4023 243.89 29.3799 240.589 30.9033C237.313 32.4014 234.647 34.5215 232.591 37.2637V64H221.317V19.0586ZM351.533 19.0205H364.597L376.289 46.0615L379.336 53.6406L382.383 46.0615L394.075 19.0205H407.139L385.849 64H372.823L351.533 19.0205ZM412.318 41.5293C412.318 38.3047 412.966 35.2832 414.261 32.4648C415.581 29.6465 417.447 27.1836 419.859 25.0762C422.297 22.9688 425.229 21.3057 428.657 20.0869C432.11 18.8682 435.982 18.2588 440.273 18.2588C444.564 18.2588 448.424 18.8682 451.852 20.0869C455.305 21.3057 458.237 22.9688 460.649 25.0762C463.087 27.1836 464.953 29.6465 466.248 32.4648C467.568 35.2832 468.229 38.3047 468.229 41.5293C468.229 44.7539 467.568 47.7754 466.248 50.5938C464.953 53.4121 463.087 55.875 460.649 57.9824C458.237 60.0898 455.305 61.7529 451.852 62.9717C448.424 64.1904 444.564 64.7998 440.273 64.7998C435.982 64.7998 432.11 64.1904 428.657 62.9717C425.229 61.7529 422.297 60.0898 419.859 57.9824C417.447 55.875 415.581 53.4121 414.261 50.5938C412.966 47.7754 412.318 44.7539 412.318 41.5293ZM424.163 41.5293C424.163 43.332 424.519 45.0459 425.229 46.6709C425.966 48.2705 427.02 49.6924 428.391 50.9365C429.787 52.1553 431.476 53.1328 433.456 53.8691C435.462 54.5801 437.734 54.9355 440.273 54.9355C442.812 54.9355 445.072 54.5801 447.053 53.8691C449.059 53.1328 450.747 52.1553 452.118 50.9365C453.515 49.6924 454.568 48.2705 455.279 46.6709C456.016 45.0459 456.384 43.332 456.384 41.5293C456.384 39.7266 456.016 38.0127 455.279 36.3877C454.568 34.7627 453.515 33.3408 452.118 32.1221C450.747 30.8779 449.059 29.9004 447.053 29.1895C445.072 28.4531 442.812 28.085 440.273 28.085C437.734 28.085 435.462 28.4531 433.456 29.1895C431.476 29.9004 429.787 30.8779 428.391 32.1221C427.02 33.3408 425.966 34.7627 425.229 36.3877C424.519 38.0127 424.163 39.7266 424.163 41.5293ZM479.616 19.0586H490.89V25.5332C493.378 23.6797 496.006 22.0801 498.773 20.7344C501.541 19.3887 504.296 18.3604 507.038 17.6494L510.352 27.9707C506.01 28.4023 502.188 29.3799 498.888 30.9033C495.612 32.4014 492.946 34.5215 490.89 37.2637V64H479.616V19.0586ZM516.636 41.377C516.636 38.3301 517.258 35.4229 518.502 32.6553C519.746 29.8623 521.536 27.3994 523.872 25.2666C526.208 23.1338 529.064 21.4326 532.441 20.1631C535.844 18.8936 539.703 18.2588 544.02 18.2588C548.311 18.2588 552.17 18.9062 555.598 20.2012C559.051 21.4707 561.971 23.2227 564.357 25.457C566.77 27.6914 568.61 30.3193 569.88 33.3408C571.175 36.3623 571.822 39.5996 571.822 43.0527C571.822 43.4844 571.81 43.9541 571.784 44.4619C571.784 44.9443 571.759 45.3887 571.708 45.7949H529.204C529.687 47.1406 530.461 48.3721 531.527 49.4893C532.619 50.6064 533.978 51.5713 535.603 52.3838C537.228 53.1963 539.106 53.8311 541.239 54.2881C543.372 54.7197 545.733 54.9355 548.323 54.9355C550.913 54.9355 553.49 54.6689 556.055 54.1357C558.619 53.5771 561.069 52.8789 563.405 52.041L567.214 60.6484C565.741 61.334 564.243 61.9434 562.72 62.4766C561.222 62.9844 559.647 63.416 557.997 63.7715C556.372 64.1016 554.658 64.3555 552.855 64.5332C551.078 64.7109 549.199 64.7998 547.219 64.7998C542.166 64.7998 537.735 64.1904 533.927 62.9717C530.118 61.7529 526.932 60.0898 524.367 57.9824C521.803 55.875 519.873 53.3994 518.578 50.5557C517.283 47.7119 516.636 44.6523 516.636 41.377ZM559.863 36.9971C559.457 35.7529 558.822 34.5977 557.959 33.5312C557.121 32.4395 556.067 31.5 554.798 30.7129C553.528 29.9004 552.056 29.2656 550.38 28.8086C548.704 28.3516 546.863 28.123 544.857 28.123C542.725 28.123 540.782 28.3643 539.03 28.8467C537.278 29.3291 535.742 29.9766 534.422 30.7891C533.102 31.6016 531.997 32.541 531.108 33.6074C530.245 34.6738 529.61 35.8037 529.204 36.9971H559.863ZM590.751 27.5137H579.896V19.0586H590.751V5.08105H602.024V19.0586H612.879V27.5137H602.024V64H590.751V27.5137ZM624.686 50.2129C627.732 52.041 631.084 53.3867 634.74 54.25C638.396 55.1133 642.142 55.5449 645.976 55.5449C648.565 55.5449 650.724 55.3672 652.45 55.0117C654.177 54.6562 655.561 54.1992 656.602 53.6406C657.643 53.082 658.379 52.4473 658.811 51.7363C659.242 51.0254 659.458 50.3018 659.458 49.5654C659.458 48.499 658.988 47.585 658.049 46.8232C657.135 46.0615 655.611 45.6807 653.479 45.6807C652.488 45.6807 651.422 45.7441 650.279 45.8711C649.137 45.998 647.931 46.1377 646.661 46.29C645.417 46.417 644.109 46.5439 642.738 46.6709C641.393 46.7979 640.021 46.8613 638.625 46.8613C635.578 46.8613 632.976 46.5312 630.817 45.8711C628.685 45.2109 626.945 44.3096 625.6 43.167C624.254 42.0244 623.276 40.6787 622.667 39.1299C622.058 37.5557 621.753 35.8672 621.753 34.0645C621.753 31.7793 622.286 29.6719 623.353 27.7422C624.419 25.8125 625.942 24.1494 627.923 22.7529C629.903 21.3311 632.29 20.2266 635.083 19.4395C637.901 18.6523 641.037 18.2588 644.49 18.2588C646.293 18.2588 648.172 18.373 650.127 18.6016C652.107 18.8047 654.05 19.084 655.954 19.4395C657.858 19.7949 659.687 20.2139 661.438 20.6963C663.19 21.1533 664.739 21.6484 666.085 22.1816L662.543 30.9414C659.674 29.875 656.805 29.0371 653.936 28.4277C651.092 27.793 648.159 27.4756 645.138 27.4756C643.03 27.4756 641.24 27.6406 639.768 27.9707C638.32 28.2754 637.14 28.6943 636.226 29.2275C635.312 29.7354 634.639 30.332 634.207 31.0176C633.801 31.6777 633.598 32.376 633.598 33.1123C633.598 33.6455 633.699 34.1279 633.902 34.5596C634.131 34.9912 634.486 35.3721 634.969 35.7021C635.477 36.0068 636.124 36.248 636.911 36.4258C637.724 36.5781 638.714 36.6543 639.882 36.6543C640.948 36.6543 642.078 36.5908 643.271 36.4639C644.465 36.3369 645.709 36.21 647.004 36.083C648.299 35.9307 649.632 35.791 651.003 35.6641C652.399 35.5371 653.821 35.4736 655.269 35.4736C657.96 35.4736 660.309 35.791 662.314 36.4258C664.346 37.0605 666.021 37.9492 667.342 39.0918C668.662 40.2344 669.652 41.5801 670.312 43.1289C670.973 44.6777 671.303 46.3662 671.303 48.1943C671.303 50.5557 670.757 52.752 669.665 54.7832C668.573 56.8145 666.948 58.5791 664.79 60.0771C662.632 61.5498 659.94 62.7051 656.716 63.543C653.517 64.3809 649.81 64.7998 645.595 64.7998C643.005 64.7998 640.504 64.6348 638.092 64.3047C635.68 64 633.382 63.5811 631.198 63.0479C629.015 62.4893 626.958 61.8418 625.028 61.1055C623.124 60.3691 621.385 59.582 619.811 58.7441L624.686 50.2129ZM681.51 0.81543H692.783V38.1396L713.807 19.0586H731.06L707.561 40.082L732.545 64H715.635L698.915 47.8135L692.783 53.2979V64H681.51V0.81543ZM745.342 69.6367C746.51 70.3984 747.779 71.0713 749.15 71.6553C750.521 72.2393 751.943 72.7217 753.416 73.1025C754.914 73.4834 756.438 73.7627 757.986 73.9404C759.535 74.1436 761.071 74.2451 762.595 74.2451C767.774 74.2451 771.761 73.1279 774.554 70.8936C777.372 68.6846 778.781 65.3584 778.781 60.915V59.3916C777.791 60.0771 776.674 60.7119 775.43 61.2959C774.211 61.8545 772.891 62.3369 771.469 62.7432C770.072 63.1494 768.587 63.4668 767.013 63.6953C765.464 63.8984 763.89 64 762.29 64C758.862 64 755.79 63.5049 753.073 62.5146C750.382 61.499 748.097 60.0264 746.218 58.0967C744.364 56.1416 742.942 53.7422 741.952 50.8984C740.962 48.0547 740.467 44.8047 740.467 41.1484V19.0586H751.702V38.0254C751.702 43.459 752.73 47.4707 754.787 50.0605C756.869 52.625 760.145 53.9072 764.613 53.9072C767.762 53.9072 770.542 53.3613 772.954 52.2695C775.392 51.1523 777.334 49.7305 778.781 48.0039V19.0586H790.055V58.8584C790.055 63.1494 789.445 66.8691 788.227 70.0176C787.008 73.1914 785.23 75.8193 782.895 77.9014C780.584 79.9834 777.74 81.5322 774.363 82.5479C770.986 83.5889 767.152 84.1094 762.861 84.1094C758.672 84.1094 754.762 83.665 751.131 82.7764C747.5 81.8877 744.174 80.6816 741.152 79.1582L745.342 69.6367Z" fill="white"/>
</svg>
